# xmcd
#
# Track frame offsets: 
#        150
#        12322
#        24512
#        39555
#        52305
#        66930
#        79665
#        92507
#        105840
#        119782
#        131770
#        145460
#        157210
#        172775
#        187580
#        200275
#        212540
#        224027
#        236457
#        249472
#        262832
#        275937
#
# Disc length: 3844 seconds
#
# Revision: 5
# Processed by: cddbd v1.5.2PL0 Copyright (c) Steve Scherf et al.
# Submitted via: ExactAudioCopyFreeDBPlugin 1.0
#
DISCID=400f0216
DTITLE=Various Artist - Honkers and Bar Walkers [Delmark Records]
DYEAR=2002
DGENRE=Rhythm and Blues
TTITLE0=Eddie Chamblee - Spider Web
TTITLE1=Eddie Chamblee - It Ain't Necessarily Blues
TTITLE2=Eddie Chamblee - Lonesome Road
TTITLE3=Eddie Chamblee - Caravan
TTITLE4=Eddie Chamblee - Come on In
TTITLE5=T.J. Fowler - Take Off
TTITLE6=T.J. Fowler - The Queen
TTITLE7=Sax Mallard with Roosevelt Sykes - Fine and Brown
TTITLE8=Jim Conley with Memphis Slim - The Cat Creeps
TTITLE9=J.T. Brown - Walkin' Home
TTITLE10=Eddie Chamblee - Rhapsody in Purple
TTITLE11=Eddie Chamblee - St. James Infirmary
TTITLE12=Eddie Chamblee - Air Mail Special
TTITLE13=Eddie Chamblee - Walkin' Home
TTITLE14=Eddie Chamblee - La! La! La! Lady
TTITLE15=Wild Bill Moore - Dynaflow
TTITLE16=Wild Bill Moore - Blues at Dawn
TTITLE17=Wild Bill Moore - Wild Bill's Bounce
TTITLE18=Floyd Taylor - Bar B Q
TTITLE19=Floyd Taylor - Loch Lomond
TTITLE20=Floyd Taylor - Baritone Boogie
TTITLE21=Swinging Sax Kari - Down for Debbie
EXTD=YEAR: 2002
EXTT0=
EXTT1=
EXTT2=
EXTT3=
EXTT4=
EXTT5=
EXTT6=
EXTT7=
EXTT8=
EXTT9=
EXTT10=
EXTT11=
EXTT12=
EXTT13=
EXTT14=
EXTT15=
EXTT16=
EXTT17=
EXTT18=
EXTT19=
EXTT20=
EXTT21=
PLAYORDER=
